<?xml version="1.0" encoding="UTF-8"?><svg id="Layer_2" xmlns="http://www.w3.org/2000/svg" viewBox="0 0 431.91 382.42"><defs><style>.cls-1{fill:none;}.cls-2{fill:#f98d3d;}.cls-3{fill:#ed701b;}.cls-4{fill:#e6f0ff;}.cls-5{fill:#f5f9ff;}.cls-6{fill:#f77e2d;}.cls-7{fill:#fff;}.cls-8{fill:#efaa3a;}.cls-9{fill:#92b9ff;}.cls-10{fill:#a6c3f7;}.cls-11{fill:#b0caff;}.cls-12{fill:#1048a0;}.cls-13{fill:#1955cc;}.cls-14{fill:#88b1ed;}.cls-15,.cls-16{fill:#2b66f6;}.cls-16,.cls-17{opacity:.55;}.cls-17{fill:#d4e8ff;}</style></defs><g id="OBJECTS"><g><path class="cls-4" d="M419.02,382.42c6.95,0,12.62-5.57,12.73-12.52,.53-34.64,3.32-85.75-61.92-99.88-52.8-11.44-21.49-105.27-163.69-99.21-102.07,4.35-74.96,90.39-154.32,97.55C-.99,273.14-1.45,339.93,.58,370.53c.44,6.69,6,11.89,12.71,11.89H419.02Z"/><path class="cls-17" d="M369.82,270.02c-52.8-11.44-21.49-105.27-163.69-99.21-24.28,1.03-41.24,6.7-54.07,14.81,4.32-.57,8.91-.97,13.8-1.17,142.19-6.06,110.89,87.77,163.69,99.21,64.55,13.98,62.51,64.15,61.94,98.76h27.52c6.95,0,12.62-5.57,12.73-12.52,.53-34.64,3.32-85.75-61.92-99.88Z"/><rect class="cls-10" x="143.73" y="0" width="2.24" height="154.15" rx="1.12" ry="1.12"/><rect class="cls-10" x="304.7" y="0" width="2.24" height="177.83" rx="1.12" ry="1.12"/><path class="cls-5" d="M306.73,166.82l-166.95-19.49c-7.13-.83-13.59,4.28-14.43,11.41l-12.46,106.75c-.83,7.13,4.28,13.59,11.41,14.43l166.95,19.49c7.13,.83,13.59-4.28,14.43-11.41l12.46-106.75c.83-7.13-4.28-13.59-11.41-14.43Z"/><path class="cls-15" d="M316.91,191.81l1.23-10.57c.83-7.13-4.28-13.59-11.41-14.43l-166.95-19.49c-7.13-.83-13.59,4.28-14.43,11.41l-1.23,10.57,192.78,22.5Z"/><g><path class="cls-7" d="M143.81,162.08c-.22,1.92-1.96,3.29-3.88,3.07-1.92-.22-3.29-1.96-3.07-3.88,.22-1.92,1.96-3.29,3.88-3.07s3.29,1.96,3.07,3.88Z"/><path class="cls-10" d="M160.55,164.04c-.22,1.92-1.96,3.29-3.88,3.07-1.92-.22-3.29-1.96-3.07-3.88s1.96-3.29,3.88-3.07c1.92,.22,3.29,1.96,3.07,3.88Z"/><path class="cls-11" d="M177.91,166.06c-.22,1.92-1.96,3.29-3.88,3.07s-3.29-1.96-3.07-3.88c.22-1.92,1.96-3.29,3.88-3.07,1.92,.22,3.29,1.96,3.07,3.88Z"/></g><path class="cls-13" d="M110.75,287.66s-2.26,10-1.88,20.22c.34,9.15-.75,69.31-.75,69.31h7.35s10.46-47.12,10.85-50.84c.39-3.72,5.65-40.93,5.65-40.93l-21.22,2.24Z"/><path class="cls-15" d="M115.64,284.92s1.69,12.85,4.57,21.99c2.88,9.13,17.01,70.29,17.01,70.29h7.35s-1.35-47.12-1.86-50.84c-.51-3.72-4.23-40.93-4.23-40.93l-22.83-.51Z"/><path class="cls-15" d="M137.81,377.18v5.13h13.99c.79,0,1.11-1.03,.44-1.47-2.05-1.36-5.32-3.24-8.37-3.66h-6.06Z"/><path class="cls-15" d="M108.49,377.18v5.13h13.99c.79,0,1.11-1.03,.44-1.47-2.05-1.36-5.32-3.24-8.37-3.66h-6.06Z"/><g><path class="cls-13" d="M133.73,225.12s4.81-7.31-.71-8.02c-4.24-.55-5.99,.72-5.99,.72,0,0-4.88-.54-7.56,1.78-1.83,1.59-8.55,13.9,2.32,18.35s8.55-6.95,8.55-6.95l3.39-5.88Z"/><path class="cls-12" d="M133.02,217.11c-4.24-.55-5.99,.72-5.99,.72,0,0-4.88-.54-7.56,1.78-1.83,1.59-8.55,13.9,2.32,18.35,5.11,2.09,7.3,.68,8.2-1.4-10.31,2.9-11.43-9.53-9.73-13.06,1.73-3.59,5.87-1.94,5.87-1.94,1.62-4.08,6.91-3.64,9.09-3.32-.4-.57-1.09-.98-2.2-1.13Z"/><path class="cls-2" d="M126.96,228.69s-1.43-1.43-2.49,0c-1.07,1.43-.36,4.63,1.43,4.81,0,0-.53,4.63-4.1,4.45v3.74h8.37v-2.85s5.17-2.14,4.99-6.41c-.18-4.28-1.43-7.31-1.43-7.31,0,0-2.85,3.21-6.77,3.56Z"/><path class="cls-3" d="M128.24,240.04c.83,.35,.68,.87,.72,1.65h1.2v-2.85s-2.03,.64-5-1.05c0,0,1.73,1.69,3.08,2.25Z"/></g><path class="cls-2" d="M129.96,221.87s-4.34-1.73-4.85-.43c-.33,.85,.51,1.58,1.67,2.32l-1.02,.17c-.23,.04-.31,.33-.13,.47,.28,.23,1.07,.38,2.71,.44l1.62-2.97Z"/><g><polygon class="cls-1" points="104.14 268.94 109.95 287.69 109.85 286.74 109.95 287.69 111.92 260.39 104.14 268.94"/><path class="cls-11" d="M160.95,232.74c-8.28-6.13-30.88-11.04-30.88-11.04l-1.86,3.39s20.52,7.95,19.17,9.14c-.8,.7-10.82,5.29-14.22,6.84-.73,.33-1.52,.49-2.33,.48l-10.39-.06s-7.5-.89-13.39,5.88c-5.27,6.07-14.23,20.12-14.23,20.12l15.1,22.2,1.67,2.45v-.03s0,.21,0,.21c0,0,.54,.06,1.49,.15,4.85,.45,20.41,1.68,28.64-.07l.23-.05-.39-36.42c13.14-10.4,19.42-18.44,21.66-20.96,.59-.67,.48-1.69-.24-2.23Zm-50.66,49.67l-1.47-3.22-4.69-10.25,7.78-8.72-1.4,19.13-.22,3.06Z"/></g><polygon class="cls-8" points="108.82 279.19 110.3 282.41 109.58 292.12 109.57 292.15 107.9 289.7 108.82 279.19"/><path class="cls-16" d="M136.02,254.63c-1.4,1.02-1.04,10.02-1.39,15.65-.58,9.43-1.14,17.59-.73,22.85,2.13-.14,4.11-.37,5.79-.73l.23-.05-.39-36.42c13.14-10.4,19.42-18.44,21.66-20.96,.59-.67,.48-1.69-.24-2.23,0,0-10.39,11.33-24.93,21.89Z"/><path class="cls-13" d="M142.7,326.35c-.37-2.68-2.41-22.8-3.51-33.8l-5.28,.58s7.7,63.33,8.21,84.06h2.44s-1.35-47.12-1.86-50.84Z"/><g><g><g><path class="cls-10" d="M67.5,359.36s-2.26-2.12-.74-10.14c1.52-8.02,5.38-15.73,3.48-24.43-1.89-8.71-16.73-30.65-16.77-32.11-.05-1.46-4.58,25.53,3.09,36.17,7.67,10.63,8.59,14.32,8.25,19.92-.34,5.59,.08,10.1,.92,11.4l1.77-.79Z"/><path class="cls-14" d="M66.1,343.22c-.89,3.58-1.43,12.55,0,14.7,.13,.2,.32,.09,.56-.28-.43-1.48-.72-4.08,.1-8.42,1.52-8.02,5.38-15.73,3.48-24.43-1.89-8.71-16.73-30.65-16.77-32.11,0,0,2.24,18.29,9.76,30.87,5.39,9.01,3.76,16.1,2.87,19.68Z"/></g><g><path class="cls-10" d="M70.21,358.81s-4.36-10.88,3.03-20.3c7.39-9.42,19.2-21.52,19.43-26.31,0,0,3.04,22.75-6.58,29.19-9.61,6.44-16.35,7.47-14.69,17.38l-1.19,.04Z"/><path class="cls-14" d="M80.58,336.82c-10.72,7.8-11.59,16.79-9.93,20.96,.13,.32,.37,.52,.7,.63-1.44-9.56,5.25-10.65,14.74-17.01,9.61-6.44,6.58-29.19,6.58-29.19,0,0-1.36,16.82-12.08,24.62Z"/></g><g><path class="cls-10" d="M63.04,359.05s1.4-5.76,.65-11.98c-.74-6.22-7.24-9.72-13.31-16.29-3.12-3.38-4.05-21.25-2.11-22.91,0,0-10.72,12.99-9.06,22.5,1.65,9.51,19.14,15.69,20.76,20.29,1.62,4.6,1.48,8.45,1.48,8.45l1.59-.05Z"/><g><path class="cls-14" d="M44.65,312.98c-3.54,9.59,.09,21.21,11.86,28.43,8.66,5.31,5.9,16.36,5.9,16.36l1.42-4.36c.13-1.88,.14-4.08-.13-6.34-.74-6.22-7.24-9.72-13.31-16.29-3.01-3.26-3.98-20-2.31-22.67-.49,.62-1.88,2.42-3.43,4.87Z"/><path class="cls-14" d="M48.08,308.11c.12-.15,.19-.24,.19-.24-.07,.06-.13,.14-.19,.24Z"/></g></g><g><path class="cls-10" d="M72.45,358.33s2.51-9.32,8.73-10.58c6.21-1.25,13.35-10.44,13.73-12.24,0,0-1.05,17.31-22.46,22.81Z"/><path class="cls-14" d="M80.82,350.84c-3.81,1.9-5.39,4.46-5.95,6.79,19.06-6.13,20.04-22.11,20.04-22.11-.08,.36-.42,1.01-.97,1.82-1.87,3.28-6.4,10.13-13.12,13.5Z"/></g></g><path class="cls-11" d="M85.89,354.9H53.4l3.86,24.27c.29,1.84,1.88,3.2,3.74,3.2h17.29c1.86,0,3.45-1.35,3.74-3.2l3.86-24.27Z"/><polygon class="cls-9" points="85.26 358.91 85.89 354.9 53.4 354.9 54.04 358.91 85.26 358.91"/><path class="cls-9" d="M78.02,354.9l-3.86,24.27c-.29,1.84-1.88,3.2-3.74,3.2h7.87c1.86,0,3.45-1.35,3.74-3.2l3.86-24.27h-7.87Z"/></g><g><rect class="cls-11" x="163.16" y="311.62" width="146.86" height="29.86"/><rect class="cls-16" x="163.16" y="311.62" width="146.86" height="7.25"/><polygon class="cls-6" points="175.93 311.62 189.33 311.62 185.74 318.87 172.33 318.87 175.93 311.62"/><polygon class="cls-6" points="206.13 311.62 219.53 311.62 215.94 318.87 202.54 318.87 206.13 311.62"/><polygon class="cls-6" points="236.33 311.62 249.73 311.62 246.14 318.87 232.74 318.87 236.33 311.62"/><polygon class="cls-6" points="266.53 311.62 279.92 311.62 276.33 318.87 262.93 318.87 266.53 311.62"/><polygon class="cls-6" points="310.02 311.62 310.02 311.82 306.52 318.87 293.13 318.87 296.73 311.62 310.02 311.62"/><rect class="cls-10" x="181.44" y="341.48" width="10.35" height="40.83"/><rect class="cls-14" x="189.44" y="341.48" width="2.35" height="40.83"/><rect class="cls-10" x="282.19" y="341.48" width="10.35" height="40.83"/><rect class="cls-14" x="289.48" y="341.48" width="3.06" height="40.83"/><rect class="cls-14" x="181.44" y="341.45" width="10.35" height="5.14"/><rect class="cls-14" x="282.19" y="341.45" width="10.35" height="5.14"/><rect class="cls-10" x="181.44" y="306.95" width="10.35" height="4.64"/><rect class="cls-14" x="189.44" y="306.95" width="2.35" height="4.64"/><rect class="cls-10" x="282.19" y="306.95" width="10.35" height="4.64"/><rect class="cls-14" x="289.48" y="306.95" width="3.06" height="4.64"/><rect class="cls-14" x="181.44" y="311.01" width="10.35" height=".58"/><rect class="cls-14" x="282.19" y="311.01" width="10.35" height=".58"/><g><polygon class="cls-15" points="189.33 311.62 174.52 341.48 163.16 341.48 163.16 337.36 175.93 311.62 189.33 311.62"/><polygon class="cls-15" points="206.13 311.62 191.32 341.48 204.72 341.48 219.53 311.62 206.13 311.62"/><polygon class="cls-15" points="249.73 311.62 234.92 341.48 221.52 341.48 236.33 311.62 249.73 311.62"/><polygon class="cls-15" points="279.92 311.62 265.12 341.48 251.72 341.48 266.53 311.62 279.92 311.62"/><polygon class="cls-15" points="296.73 311.62 281.92 341.48 295.31 341.48 310.02 311.82 296.73 311.62"/></g><g><polygon class="cls-13" points="189.33 311.62 185.74 318.87 172.33 318.87 175.93 311.62 189.33 311.62"/><polygon class="cls-13" points="219.53 311.62 215.94 318.87 202.54 318.87 206.13 311.62 219.53 311.62"/><polygon class="cls-13" points="249.73 311.62 246.14 318.87 232.74 318.87 236.33 311.62 249.73 311.62"/><polygon class="cls-13" points="279.92 311.62 276.33 318.87 262.93 318.87 266.53 311.62 279.92 311.62"/><polygon class="cls-13" points="310.02 311.82 306.52 318.87 293.13 318.87 296.73 311.62 310.02 311.82"/></g><circle class="cls-11" cx="186.35" cy="300.47" r="9.23" transform="translate(-45.85 33.84) rotate(-9.24)"/><path class="cls-15" d="M190.53,300.47c0-2.31-1.87-4.18-4.18-4.18s-4.18,1.87-4.18,4.18,1.87,4.18,4.18,4.18,4.18-1.87,4.18-4.18Z"/><circle class="cls-11" cx="287.31" cy="300.47" r="9.23" transform="translate(-44.54 50.06) rotate(-9.24)"/><path class="cls-15" d="M291.49,300.47c0-2.31-1.87-4.18-4.18-4.18s-4.18,1.87-4.18,4.18,1.87,4.18,4.18,4.18,4.18-1.87,4.18-4.18Z"/></g><g><path class="cls-11" d="M365.66,379.14h-46.77l7.15-17.34h0s2.88-7.01,2.88-7.01l.79-1.92,1.29-3.12,.26-.64,2.88-7,.53-1.27,5.1-12.38c.92-2.23,4.08-2.23,5,0l5.1,12.38,.53,1.27,2.88,7,.26,.64,1.29,3.12,.79,1.92,2.88,7h0s7.15,17.35,7.15,17.35Z"/><polygon class="cls-16" points="321.96 371.71 318.89 379.14 365.67 379.14 362.6 371.71 321.96 371.71"/><rect class="cls-10" x="315.15" y="374.7" width="53.57" height="7.57"/><rect class="cls-14" x="357.15" y="374.7" width="11.57" height="7.57"/><g><path class="cls-16" d="M363.82,374.69h-6.62l-5.31-12.89h0s-2.88-7.01-2.88-7.01l-.79-1.92-1.29-3.12-.26-.64-2.88-7-.53-1.27-4.29-10.42,.8-1.96c.92-2.23,4.08-2.23,5,0l5.1,12.38,.53,1.27,2.88,7,.26,.64,1.29,3.12,.79,1.92,2.88,7h0s5.31,12.9,5.31,12.9Z"/><g><polygon class="cls-15" points="353.28 349.12 331.27 349.12 334.15 342.12 350.4 342.12 353.28 349.12"/><polygon class="cls-15" points="358.51 361.79 358.51 361.8 326.04 361.8 326.04 361.79 328.92 354.79 355.63 354.79 358.51 361.79"/><polygon class="cls-13" points="353.28 349.12 346.67 349.12 343.79 342.12 350.4 342.12 353.28 349.12"/><polygon class="cls-13" points="358.51 361.79 358.51 361.8 351.89 361.8 351.89 361.79 349.01 354.79 355.63 354.79 358.51 361.79"/></g></g></g><g><path class="cls-4" d="M67.52,209.08c3.49,0,6.53-2.54,7.01-6,.08-.62,.13-1.26,.13-1.9,0-7.71-6.25-13.96-13.96-13.96-.32,0-.63,.01-.94,.03-.64-7.6-7.01-13.57-14.77-13.57-8.19,0-14.83,6.64-14.83,14.83,0,.36,.02,.72,.04,1.08-2.32-1.3-5.03-1.99-7.91-1.86-7.45,.34-13.57,6.3-14.1,13.74,0,.06,0,.12-.01,.18-.24,4.04,3.03,7.44,7.08,7.44h52.26Z"/><path class="cls-4" d="M400.65,220.04c11.04,0,11.65-16.61,.62-17.15-.3-.01-.6-.02-.91-.02-1.97,0-3.86,.31-5.64,.88-1.48-8.99-9.28-15.85-18.69-15.85s-17.55,7.17-18.77,16.45c-2.28-1.09-4.84-1.71-7.54-1.71-1.51,0-2.97,.19-4.37,.55-9.65,2.49-7.63,16.85,2.34,16.85h52.95Z"/><path class="cls-4" d="M268.09,138.19c11.03,0,11.65-16.61,.62-17.14-.3-.01-.6-.02-.91-.02-1.97,0-3.86,.31-5.64,.88-1.48-8.99-9.28-15.85-18.68-15.85s-17.55,7.17-18.77,16.45c-2.28-1.09-4.84-1.71-7.53-1.71-1.51,0-2.97,.19-4.37,.55-9.65,2.48-7.62,16.84,2.34,16.84h52.93Z"/><circle class="cls-11" cx="92.4" cy="142.43" r="26.45"/><path class="cls-9" d="M92.62,115.98c7.19,4.73,11.95,12.87,11.95,22.12,0,14.61-11.84,26.45-26.45,26.45-.07,0-.14,0-.22,0,4.17,2.74,9.15,4.34,14.51,4.34,14.61,0,26.45-11.84,26.45-26.45s-11.73-26.33-26.24-26.45Z"/></g><path class="cls-11" d="M235.73,273.46l-63.31-7.33c-3.11-.36-5.73-2.29-7-5.15-1.27-2.86-.94-6.1,.88-8.65l38.3-53.69c1.88-2.64,4.93-3.99,8.15-3.62,3.22,.37,5.88,2.39,7.1,5.38l25.01,61.03c1.19,2.9,.77,6.12-1.13,8.62-1.89,2.5-4.88,3.77-8,3.41Zm-23.55-73.66c-1.45-.17-2.82,.44-3.67,1.63l-38.3,53.69c-.82,1.15-.97,2.6-.39,3.89,.57,1.29,1.75,2.16,3.15,2.32l63.31,7.33c1.4,.16,2.75-.41,3.6-1.54,.85-1.12,1.04-2.57,.51-3.88l-25.01-61.03c-.55-1.35-1.75-2.26-3.2-2.42Z"/><path class="cls-11" d="M199.65,254.32c.09-.82,.33-1.55,.7-2.21,.37-.66,.85-1.21,1.44-1.66,.59-.44,1.28-.77,2.06-.96,.78-.2,1.64-.24,2.58-.13,.94,.11,1.77,.35,2.5,.72,.73,.37,1.33,.84,1.8,1.41,.47,.57,.82,1.22,1.03,1.94,.21,.73,.27,1.5,.17,2.31-.09,.82-.33,1.55-.7,2.19-.37,.65-.85,1.19-1.44,1.64-.59,.45-1.28,.77-2.08,.96-.79,.2-1.66,.24-2.6,.13-.94-.11-1.76-.35-2.48-.72-.71-.37-1.31-.84-1.78-1.41-.47-.57-.82-1.21-1.03-1.92-.21-.71-.27-1.48-.18-2.29Zm11.9-9.32l-9.12-1.06,2.32-31.31,11.7,1.36-4.9,31.01Z"/></g></g></svg>